<svg width="17" height="16" viewBox="0 0 17 16" fill="none" xmlns="http://www.w3.org/2000/svg">
<path d="M12.7902 9.54673C12.6175 9.71407 12.5382 9.95607 12.5775 10.1934L13.1702 13.4734C13.2202 13.7514 13.1029 14.0327 12.8702 14.1934C12.6422 14.3601 12.3389 14.3801 12.0902 14.2467L9.13753 12.7067C9.03486 12.6521 8.92086 12.6227 8.8042 12.6194H8.62353C8.56086 12.6287 8.49953 12.6487 8.44353 12.6794L5.4902 14.2267C5.3442 14.3001 5.17886 14.3261 5.01686 14.3001C4.6222 14.2254 4.35886 13.8494 4.42353 13.4527L5.01686 10.1727C5.0562 9.9334 4.97686 9.69007 4.8042 9.52007L2.39686 7.18673C2.19553 6.9914 2.12553 6.69807 2.21753 6.4334C2.30686 6.1694 2.53486 5.97673 2.8102 5.9334L6.12353 5.45273C6.37553 5.42673 6.59686 5.2734 6.7102 5.04673L8.1702 2.0534C8.20486 1.98673 8.24953 1.9254 8.30353 1.8734L8.36353 1.82673C8.39486 1.79207 8.43086 1.7634 8.47086 1.74007L8.54353 1.7134L8.65686 1.66673H8.93753C9.1882 1.69273 9.40886 1.84273 9.5242 2.06673L11.0035 5.04673C11.1102 5.26473 11.3175 5.41607 11.5569 5.45273L14.8702 5.9334C15.1502 5.9734 15.3842 6.16673 15.4769 6.4334C15.5642 6.70073 15.4889 6.99407 15.2835 7.18673L12.7902 9.54673Z" fill="#FDC040"/>
</svg>
